<?xml version="1.0" encoding="utf-8"?>
<!-- Generator: Adobe Illustrator 24.3.0, SVG Export Plug-In . SVG Version: 6.00 Build 0)  -->
<svg version="1.1" id="Capa_1" xmlns="http://www.w3.org/2000/svg" xmlns:xlink="http://www.w3.org/1999/xlink" x="0px" y="0px"
	 viewBox="0 0 158.26 38.68" style="enable-background:new 0 0 158.26 38.68;" xml:space="preserve">
<style type="text/css">
	.st0{fill:#FFFFFF;}
	.st1{fill:#D3D329;}
	.st2{fill:#EFEFEF;}
</style>
<g>
	<g>
		<path class="st0" d="M13.98,37.87v-6.39h1.05v2.77l-0.2,0.1c0.06-0.21,0.17-0.4,0.34-0.56c0.17-0.17,0.37-0.31,0.6-0.41
			s0.47-0.16,0.71-0.16c0.35,0,0.63,0.07,0.87,0.21s0.41,0.35,0.53,0.62c0.12,0.28,0.18,0.62,0.18,1.04v2.78h-1.06v-2.7
			c0-0.23-0.03-0.42-0.09-0.57c-0.06-0.15-0.16-0.26-0.29-0.34c-0.13-0.07-0.29-0.1-0.48-0.1c-0.16,0-0.3,0.02-0.43,0.07
			s-0.24,0.12-0.34,0.21c-0.09,0.09-0.17,0.19-0.22,0.31s-0.08,0.24-0.08,0.38v2.74h-0.53c-0.1,0-0.2,0-0.29,0
			S14.06,37.87,13.98,37.87z"/>
		<path class="st0" d="M22.42,37.95c-0.37,0-0.71-0.1-1.02-0.31c-0.3-0.21-0.55-0.49-0.73-0.85c-0.18-0.36-0.28-0.76-0.28-1.22
			c0-0.45,0.09-0.86,0.28-1.22c0.18-0.36,0.43-0.64,0.75-0.84c0.32-0.2,0.67-0.3,1.07-0.3c0.23,0,0.44,0.03,0.63,0.1
			c0.19,0.07,0.36,0.16,0.5,0.28c0.14,0.12,0.26,0.26,0.36,0.41c0.1,0.16,0.16,0.32,0.19,0.5l-0.23-0.06v-1.14h1.07v4.55h-1.08
			v-1.09l0.25-0.04c-0.04,0.16-0.11,0.31-0.22,0.45c-0.11,0.15-0.24,0.28-0.4,0.39s-0.33,0.2-0.53,0.27
			C22.85,37.92,22.64,37.95,22.42,37.95z M22.72,37.01c0.25,0,0.47-0.06,0.66-0.18c0.19-0.12,0.34-0.29,0.44-0.5
			c0.11-0.22,0.16-0.46,0.16-0.75c0-0.28-0.05-0.52-0.16-0.73s-0.25-0.38-0.44-0.5c-0.19-0.12-0.41-0.18-0.66-0.18
			c-0.25,0-0.46,0.06-0.65,0.18c-0.19,0.12-0.33,0.29-0.44,0.5s-0.16,0.46-0.16,0.73c0,0.28,0.05,0.53,0.16,0.75
			c0.1,0.21,0.25,0.38,0.44,0.5C22.25,36.95,22.47,37.01,22.72,37.01z"/>
		<path class="st0" d="M27.52,37.87v-0.76l2.37-3.12v0.22h-2.37v-0.89H31v0.76l-2.3,3.06l-0.03-0.16h2.4v0.89H27.52z"/>
		<path class="st0" d="M39.51,37.95c-0.43,0-0.81-0.1-1.15-0.31s-0.61-0.49-0.8-0.85c-0.2-0.36-0.29-0.76-0.29-1.21
			c0-0.45,0.1-0.85,0.29-1.21c0.2-0.36,0.46-0.64,0.8-0.85s0.72-0.31,1.15-0.31c0.41,0,0.78,0.08,1.11,0.23s0.59,0.37,0.78,0.65
			l-0.59,0.71c-0.09-0.12-0.2-0.23-0.33-0.33c-0.13-0.1-0.27-0.18-0.42-0.23c-0.15-0.06-0.3-0.09-0.45-0.09
			c-0.25,0-0.48,0.06-0.68,0.19c-0.2,0.12-0.36,0.29-0.47,0.51c-0.11,0.22-0.17,0.46-0.17,0.73s0.06,0.51,0.18,0.72
			c0.12,0.21,0.28,0.38,0.48,0.51c0.2,0.13,0.43,0.19,0.67,0.19c0.15,0,0.29-0.02,0.44-0.07c0.14-0.05,0.27-0.12,0.4-0.21
			c0.13-0.09,0.24-0.21,0.35-0.34l0.59,0.72c-0.2,0.25-0.46,0.46-0.81,0.62S39.89,37.95,39.51,37.95z"/>
		<path class="st0" d="M43.69,37.87v-6.39h1.07v6.39H43.69z"/>
		<path class="st0" d="M48.11,32.35c-0.21,0-0.38-0.05-0.5-0.16c-0.12-0.11-0.18-0.26-0.18-0.45c0-0.18,0.06-0.33,0.18-0.45
			s0.28-0.17,0.49-0.17c0.22,0,0.39,0.05,0.5,0.16c0.12,0.11,0.18,0.26,0.18,0.46c0,0.18-0.06,0.33-0.18,0.44
			C48.49,32.29,48.33,32.35,48.11,32.35z M47.6,37.87v-4.55h1.06v4.55H47.6z"/>
		<path class="st0" d="M53.42,37.95c-0.43,0-0.81-0.1-1.15-0.31s-0.61-0.49-0.8-0.85c-0.2-0.36-0.29-0.76-0.29-1.21
			c0-0.45,0.1-0.85,0.29-1.21c0.2-0.36,0.46-0.64,0.8-0.85s0.72-0.31,1.15-0.31c0.41,0,0.78,0.08,1.11,0.23s0.59,0.37,0.78,0.65
			l-0.59,0.71c-0.09-0.12-0.2-0.23-0.33-0.33c-0.13-0.1-0.27-0.18-0.42-0.23c-0.15-0.06-0.3-0.09-0.45-0.09
			c-0.25,0-0.48,0.06-0.68,0.19c-0.2,0.12-0.36,0.29-0.47,0.51c-0.11,0.22-0.17,0.46-0.17,0.73s0.06,0.51,0.18,0.72
			c0.12,0.21,0.28,0.38,0.48,0.51c0.2,0.13,0.43,0.19,0.67,0.19c0.15,0,0.29-0.02,0.44-0.07c0.14-0.05,0.27-0.12,0.4-0.21
			c0.13-0.09,0.24-0.21,0.35-0.34l0.59,0.72c-0.2,0.25-0.46,0.46-0.81,0.62S53.8,37.95,53.42,37.95z"/>
		<path class="st0" d="M63.55,37.95c-0.43,0-0.81-0.1-1.15-0.31s-0.61-0.49-0.8-0.85c-0.2-0.36-0.29-0.76-0.29-1.21
			c0-0.45,0.1-0.85,0.29-1.21c0.2-0.36,0.46-0.64,0.8-0.85s0.72-0.31,1.15-0.31c0.41,0,0.78,0.08,1.11,0.23s0.59,0.37,0.78,0.65
			l-0.59,0.71c-0.09-0.12-0.2-0.23-0.33-0.33c-0.13-0.1-0.27-0.18-0.42-0.23c-0.15-0.06-0.3-0.09-0.45-0.09
			c-0.25,0-0.48,0.06-0.68,0.19c-0.2,0.12-0.36,0.29-0.47,0.51c-0.11,0.22-0.17,0.46-0.17,0.73s0.06,0.51,0.18,0.72
			c0.12,0.21,0.28,0.38,0.48,0.51c0.2,0.13,0.43,0.19,0.67,0.19c0.15,0,0.29-0.02,0.44-0.07c0.14-0.05,0.27-0.12,0.4-0.21
			c0.13-0.09,0.24-0.21,0.35-0.34l0.59,0.72c-0.2,0.25-0.46,0.46-0.81,0.62S63.93,37.95,63.55,37.95z"/>
		<path class="st0" d="M69.79,37.95c-0.45,0-0.86-0.1-1.22-0.31s-0.64-0.49-0.85-0.84s-0.31-0.76-0.31-1.22
			c0-0.45,0.1-0.86,0.31-1.22c0.21-0.36,0.49-0.64,0.85-0.84c0.36-0.2,0.76-0.31,1.22-0.31c0.45,0,0.85,0.1,1.21,0.31
			c0.36,0.2,0.64,0.48,0.84,0.84c0.2,0.36,0.31,0.76,0.31,1.22c0,0.45-0.1,0.86-0.31,1.22s-0.48,0.64-0.84,0.84
			C70.64,37.85,70.24,37.95,69.79,37.95z M69.79,37.01c0.25,0,0.47-0.06,0.66-0.19c0.19-0.13,0.35-0.3,0.46-0.51
			s0.17-0.45,0.16-0.72c0.01-0.28-0.05-0.52-0.16-0.73s-0.26-0.38-0.46-0.5c-0.19-0.12-0.41-0.19-0.66-0.19s-0.47,0.06-0.67,0.19
			c-0.2,0.12-0.35,0.29-0.46,0.51c-0.11,0.22-0.16,0.46-0.16,0.73s0.05,0.51,0.16,0.72c0.11,0.21,0.26,0.38,0.46,0.51
			C69.32,36.95,69.55,37.01,69.79,37.01z"/>
		<path class="st0" d="M74.57,37.87v-4.55h1.04l0.02,0.93l-0.2,0.1c0.06-0.21,0.17-0.4,0.34-0.56c0.17-0.17,0.37-0.31,0.6-0.41
			s0.47-0.16,0.71-0.16c0.35,0,0.63,0.07,0.87,0.21s0.41,0.35,0.53,0.62c0.12,0.28,0.18,0.62,0.18,1.04v2.78h-1.06v-2.7
			c0-0.23-0.03-0.42-0.09-0.57c-0.06-0.15-0.16-0.26-0.29-0.34c-0.13-0.07-0.29-0.1-0.48-0.1c-0.16,0-0.3,0.02-0.43,0.07
			s-0.24,0.12-0.34,0.21c-0.09,0.09-0.17,0.19-0.22,0.31s-0.08,0.24-0.08,0.38v2.74H75.1c-0.1,0-0.2,0-0.29,0
			S74.64,37.87,74.57,37.87z"/>
		<path class="st0" d="M84.89,34.3v-0.98h2.95v0.98H84.89z M85.78,37.87v-5.7h1.06v5.7H85.78z"/>
		<path class="st0" d="M91.7,37.95c-0.33,0-0.61-0.07-0.85-0.22s-0.43-0.36-0.55-0.63s-0.19-0.6-0.19-0.98v-2.81h1.06v2.58
			c0,0.24,0.04,0.45,0.11,0.62s0.18,0.3,0.33,0.39c0.14,0.09,0.32,0.14,0.52,0.14c0.15,0,0.29-0.02,0.41-0.07
			c0.12-0.05,0.23-0.12,0.32-0.21c0.09-0.09,0.16-0.2,0.22-0.32c0.05-0.12,0.08-0.26,0.08-0.4v-2.73h1.06v4.55h-1.04l-0.02-0.95
			l0.19-0.1c-0.07,0.22-0.19,0.41-0.35,0.58c-0.16,0.17-0.36,0.31-0.58,0.41C92.19,37.9,91.95,37.95,91.7,37.95z"/>
		<path class="st0" d="M98.44,37.95c-0.4,0-0.76-0.07-1.08-0.2c-0.32-0.14-0.58-0.33-0.78-0.58l0.69-0.6
			c0.17,0.2,0.37,0.34,0.58,0.42c0.21,0.09,0.44,0.13,0.67,0.13c0.1,0,0.19-0.01,0.26-0.03c0.08-0.02,0.15-0.06,0.2-0.1
			c0.06-0.05,0.1-0.1,0.13-0.16c0.03-0.06,0.05-0.13,0.05-0.2c0-0.14-0.05-0.25-0.16-0.33c-0.06-0.04-0.15-0.08-0.27-0.13
			s-0.28-0.09-0.48-0.14c-0.31-0.08-0.57-0.17-0.78-0.28c-0.21-0.11-0.37-0.23-0.48-0.36c-0.1-0.11-0.17-0.23-0.22-0.37
			c-0.05-0.14-0.07-0.29-0.07-0.45c0-0.2,0.04-0.38,0.13-0.55c0.09-0.16,0.21-0.31,0.37-0.43s0.34-0.21,0.54-0.28
			c0.21-0.06,0.42-0.09,0.65-0.09c0.23,0,0.45,0.03,0.67,0.09s0.42,0.14,0.6,0.25c0.19,0.11,0.35,0.23,0.48,0.38l-0.59,0.65
			c-0.11-0.1-0.23-0.2-0.36-0.28c-0.13-0.08-0.26-0.15-0.39-0.19c-0.13-0.05-0.26-0.07-0.37-0.07c-0.11,0-0.21,0.01-0.29,0.03
			c-0.09,0.02-0.16,0.05-0.22,0.09c-0.06,0.04-0.1,0.09-0.13,0.15c-0.03,0.06-0.05,0.13-0.05,0.21c0.01,0.07,0.02,0.13,0.06,0.19
			c0.03,0.06,0.08,0.11,0.13,0.15c0.06,0.04,0.16,0.09,0.28,0.14s0.29,0.1,0.49,0.15c0.28,0.07,0.52,0.16,0.71,0.25
			c0.19,0.09,0.34,0.2,0.45,0.32c0.11,0.1,0.19,0.22,0.23,0.36c0.05,0.14,0.07,0.29,0.07,0.46c0,0.27-0.08,0.51-0.23,0.72
			c-0.15,0.21-0.36,0.38-0.62,0.5S98.76,37.95,98.44,37.95z"/>
		<path class="st0" d="M107.21,32.35c-0.21,0-0.38-0.05-0.5-0.16c-0.12-0.11-0.18-0.26-0.18-0.45c0-0.18,0.06-0.33,0.18-0.45
			s0.28-0.17,0.49-0.17c0.22,0,0.39,0.05,0.5,0.16c0.12,0.11,0.18,0.26,0.18,0.46c0,0.18-0.06,0.33-0.18,0.44
			C107.59,32.29,107.43,32.35,107.21,32.35z M106.7,37.87v-4.55h1.06v4.55H106.7z"/>
		<path class="st0" d="M112.4,37.95c-0.4,0-0.76-0.1-1.08-0.31s-0.57-0.48-0.76-0.84c-0.19-0.35-0.28-0.76-0.28-1.22
			c0-0.45,0.09-0.86,0.28-1.22c0.18-0.36,0.44-0.64,0.76-0.84c0.32-0.2,0.68-0.31,1.08-0.31c0.22,0,0.43,0.03,0.63,0.1
			c0.2,0.07,0.39,0.16,0.55,0.28c0.16,0.12,0.29,0.25,0.38,0.39c0.09,0.14,0.15,0.29,0.16,0.45l-0.28,0.03v-3h1.06v6.39h-1.03
			l-0.03-1.07l0.21,0.02c-0.01,0.14-0.06,0.28-0.15,0.41c-0.09,0.13-0.22,0.25-0.37,0.36c-0.15,0.11-0.32,0.2-0.52,0.26
			C112.81,37.92,112.61,37.95,112.4,37.95z M112.61,37.05c0.25,0,0.47-0.06,0.66-0.19s0.34-0.3,0.44-0.52s0.16-0.47,0.16-0.76
			c0-0.28-0.05-0.53-0.16-0.76c-0.11-0.22-0.25-0.39-0.44-0.52s-0.41-0.19-0.66-0.19c-0.25,0-0.47,0.06-0.66,0.19
			c-0.19,0.12-0.34,0.3-0.44,0.52c-0.11,0.22-0.16,0.47-0.16,0.76c0,0.29,0.05,0.54,0.16,0.76s0.25,0.39,0.44,0.52
			C112.14,36.99,112.36,37.05,112.61,37.05z"/>
		<path class="st0" d="M119.7,37.95c-0.48,0-0.9-0.1-1.26-0.3c-0.37-0.2-0.65-0.48-0.85-0.82c-0.2-0.35-0.31-0.75-0.31-1.2
			c0-0.36,0.06-0.68,0.17-0.98s0.27-0.55,0.48-0.76s0.45-0.38,0.73-0.5c0.29-0.12,0.6-0.18,0.94-0.18c0.3,0,0.58,0.06,0.84,0.17
			c0.26,0.12,0.48,0.27,0.67,0.47c0.19,0.2,0.33,0.43,0.44,0.71c0.1,0.27,0.15,0.57,0.14,0.89l-0.01,0.37h-3.69l-0.2-0.72h2.99
			l-0.14,0.15v-0.19c-0.02-0.18-0.07-0.34-0.17-0.47c-0.1-0.13-0.22-0.24-0.38-0.32c-0.15-0.08-0.32-0.12-0.5-0.12
			c-0.28,0-0.52,0.05-0.71,0.16s-0.34,0.27-0.44,0.47c-0.1,0.2-0.15,0.46-0.15,0.76c0,0.29,0.06,0.55,0.19,0.77
			c0.12,0.22,0.3,0.39,0.53,0.5c0.23,0.12,0.49,0.18,0.8,0.18c0.21,0,0.41-0.03,0.59-0.1c0.18-0.07,0.37-0.19,0.58-0.37l0.53,0.73
			c-0.16,0.14-0.33,0.27-0.53,0.37c-0.2,0.1-0.41,0.18-0.63,0.24C120.13,37.92,119.91,37.95,119.7,37.95z"/>
		<path class="st0" d="M125.81,37.95c-0.37,0-0.71-0.1-1.02-0.31c-0.3-0.21-0.55-0.49-0.73-0.85c-0.18-0.36-0.28-0.76-0.28-1.22
			c0-0.45,0.09-0.86,0.28-1.22c0.18-0.36,0.43-0.64,0.75-0.84c0.32-0.2,0.67-0.3,1.07-0.3c0.23,0,0.44,0.03,0.63,0.1
			c0.19,0.07,0.36,0.16,0.5,0.28c0.14,0.12,0.26,0.26,0.36,0.41c0.1,0.16,0.16,0.32,0.19,0.5l-0.23-0.06v-1.14h1.07v4.55h-1.08
			v-1.09l0.25-0.04c-0.04,0.16-0.11,0.31-0.22,0.45c-0.11,0.15-0.24,0.28-0.4,0.39s-0.33,0.2-0.53,0.27
			C126.24,37.92,126.03,37.95,125.81,37.95z M126.1,37.01c0.25,0,0.47-0.06,0.66-0.18c0.19-0.12,0.34-0.29,0.44-0.5
			c0.11-0.22,0.16-0.46,0.16-0.75c0-0.28-0.05-0.52-0.16-0.73s-0.25-0.38-0.44-0.5c-0.19-0.12-0.41-0.18-0.66-0.18
			c-0.25,0-0.46,0.06-0.65,0.18c-0.19,0.12-0.33,0.29-0.44,0.5s-0.16,0.46-0.16,0.73c0,0.28,0.05,0.53,0.16,0.75
			c0.1,0.21,0.25,0.38,0.44,0.5C125.64,36.95,125.86,37.01,126.1,37.01z"/>
		<path class="st0" d="M132.62,37.95c-0.4,0-0.76-0.07-1.08-0.2c-0.32-0.14-0.58-0.33-0.78-0.58l0.69-0.6
			c0.17,0.2,0.37,0.34,0.58,0.42c0.21,0.09,0.44,0.13,0.67,0.13c0.1,0,0.19-0.01,0.26-0.03c0.08-0.02,0.15-0.06,0.2-0.1
			c0.06-0.05,0.1-0.1,0.13-0.16c0.03-0.06,0.05-0.13,0.05-0.2c0-0.14-0.05-0.25-0.16-0.33c-0.06-0.04-0.15-0.08-0.27-0.13
			s-0.28-0.09-0.48-0.14c-0.31-0.08-0.57-0.17-0.78-0.28c-0.21-0.11-0.37-0.23-0.48-0.36c-0.1-0.11-0.17-0.23-0.22-0.37
			c-0.05-0.14-0.07-0.29-0.07-0.45c0-0.2,0.04-0.38,0.13-0.55c0.09-0.16,0.21-0.31,0.37-0.43s0.34-0.21,0.54-0.28
			c0.21-0.06,0.42-0.09,0.65-0.09c0.23,0,0.45,0.03,0.67,0.09s0.42,0.14,0.6,0.25c0.19,0.11,0.35,0.23,0.48,0.38l-0.59,0.65
			c-0.11-0.1-0.23-0.2-0.36-0.28c-0.13-0.08-0.26-0.15-0.39-0.19c-0.13-0.05-0.26-0.07-0.37-0.07c-0.11,0-0.21,0.01-0.29,0.03
			c-0.09,0.02-0.16,0.05-0.22,0.09c-0.06,0.04-0.1,0.09-0.13,0.15c-0.03,0.06-0.05,0.13-0.05,0.21c0.01,0.07,0.02,0.13,0.06,0.19
			c0.03,0.06,0.08,0.11,0.13,0.15c0.06,0.04,0.16,0.09,0.28,0.14s0.29,0.1,0.49,0.15c0.28,0.07,0.52,0.16,0.71,0.25
			c0.19,0.09,0.34,0.2,0.45,0.32c0.11,0.1,0.19,0.22,0.23,0.36c0.05,0.14,0.07,0.29,0.07,0.46c0,0.27-0.08,0.51-0.23,0.72
			c-0.15,0.21-0.36,0.38-0.62,0.5S132.95,37.95,132.62,37.95z"/>
	</g>
	<path class="st1" d="M0.74,35.37V8.22H7.5l0.39,4.24l-1.47-0.32C6.59,11.3,7,10.56,7.65,9.91c0.65-0.65,1.47-1.16,2.46-1.53
		c0.99-0.37,2.08-0.56,3.25-0.56c1.58,0,2.99,0.43,4.22,1.28c1.23,0.85,2.2,2.03,2.91,3.52c0.71,1.5,1.06,3.23,1.06,5.2
		c0,1.94-0.36,3.66-1.08,5.16c-0.72,1.5-1.71,2.67-2.97,3.52c-1.26,0.85-2.7,1.28-4.33,1.28c-1.08,0-2.09-0.19-3.04-0.57
		c-0.95-0.38-1.74-0.92-2.39-1.6c-0.65-0.68-1.08-1.47-1.29-2.35l1.62-0.5v12.62H0.74z M11.17,21.85c0.69,0,1.28-0.16,1.76-0.47
		c0.48-0.31,0.84-0.77,1.1-1.37c0.25-0.6,0.38-1.33,0.38-2.19c0-0.86-0.13-1.6-0.38-2.21c-0.25-0.61-0.62-1.07-1.1-1.38
		c-0.48-0.31-1.07-0.47-1.76-0.47c-0.69,0-1.29,0.16-1.78,0.47C8.9,14.54,8.53,15,8.28,15.61c-0.25,0.61-0.38,1.35-0.38,2.21
		c0,0.86,0.13,1.59,0.38,2.19c0.25,0.6,0.62,1.05,1.11,1.37C9.88,21.69,10.48,21.85,11.17,21.85z"/>
	<path class="st1" d="M23.11,27.46V8.22h7.3v19.23H23.11z"/>
	<path class="st1" d="M23.11,6.07V0.85h7.3v5.22H23.11z"/>
	<path class="st1" d="M80.09,27.46v-5.22h7.3v5.22H80.09z"/>
	<path class="st1" d="M31.63,27.46l7.87-11.47l3.77,4.49l-3.09,6.97H31.63z M44.6,27.46l-2.55-4.82l-2.88-4.06L31.95,8.22h8.56
		l2.37,4.39l3.09,4.28l7.19,10.57H44.6z M45.07,19.76l-3.78-4.49l3.13-7.05h8.56L45.07,19.76z"/>
	<path class="st1" d="M63.19,27.82c-2.23,0-4.15-0.43-5.75-1.29c-1.61-0.86-2.84-2.04-3.7-3.54c-0.86-1.5-1.29-3.22-1.29-5.16
		c0-1.44,0.24-2.77,0.72-3.99c0.48-1.22,1.16-2.28,2.03-3.18c0.87-0.9,1.91-1.59,3.09-2.09c1.19-0.49,2.49-0.74,3.9-0.74
		s2.7,0.25,3.86,0.74c1.16,0.49,2.16,1.19,3,2.09c0.84,0.9,1.48,1.96,1.92,3.18c0.44,1.22,0.64,2.55,0.59,3.99l-0.04,1.51H56.47
		l-0.83-3.42h10.1l-0.68,0.72v-0.65c0-0.45-0.11-0.86-0.34-1.2c-0.23-0.35-0.55-0.62-0.95-0.81c-0.41-0.19-0.89-0.29-1.44-0.29
		c-0.7,0-1.28,0.14-1.76,0.43c-0.48,0.29-0.84,0.7-1.1,1.22c-0.25,0.53-0.38,1.16-0.38,1.9c0,0.86,0.19,1.62,0.56,2.27
		c0.37,0.65,0.92,1.15,1.65,1.51c0.73,0.36,1.64,0.54,2.72,0.54c0.72,0,1.34-0.09,1.85-0.27c0.52-0.18,1.06-0.47,1.64-0.88
		l3.34,4.71c-0.89,0.69-1.76,1.23-2.61,1.62c-0.85,0.38-1.69,0.66-2.52,0.83C64.9,27.73,64.05,27.82,63.19,27.82z"/>
	<path class="st1" d="M72.79,27.46V8.22h7.3v19.23H72.79z"/>
	<path class="st2" d="M90.58,27.46L84.4,8.22h7.76l2.77,11.11l-0.72-0.14l3.16-8.63h4.24l3.52,8.63l-0.72,0.11l2.73-11.07h7.77
		l-6.58,19.23h-5.54l-3.31-8.92h0.14l-3.52,8.92H90.58z"/>
	<path class="st2" d="M121.79,27.78c-1.61,0-3.03-0.43-4.28-1.28c-1.25-0.85-2.23-2.03-2.95-3.52c-0.72-1.5-1.08-3.22-1.08-5.16
		c0-1.97,0.35-3.7,1.06-5.2c0.71-1.5,1.69-2.67,2.95-3.52c1.26-0.85,2.71-1.28,4.37-1.28c0.86,0,1.65,0.12,2.37,0.36
		c0.72,0.24,1.35,0.57,1.9,1.01c0.55,0.43,1.03,0.93,1.44,1.49c0.41,0.56,0.75,1.17,1.04,1.82l-1.47-0.04V8.22h7.15v19.23h-7.33
		v-4.71l1.62,0.14c-0.24,0.69-0.57,1.34-0.99,1.94c-0.42,0.6-0.92,1.11-1.49,1.55c-0.57,0.43-1.22,0.77-1.94,1.02
		C123.44,27.65,122.65,27.78,121.79,27.78z M123.87,21.85c0.69,0,1.29-0.16,1.78-0.47c0.49-0.31,0.86-0.77,1.11-1.37
		c0.25-0.6,0.38-1.33,0.38-2.19c0-0.86-0.13-1.6-0.38-2.21c-0.25-0.61-0.62-1.07-1.11-1.38s-1.08-0.47-1.78-0.47
		c-0.7,0-1.28,0.16-1.76,0.47c-0.48,0.31-0.85,0.77-1.1,1.38c-0.25,0.61-0.38,1.35-0.38,2.21c0,0.86,0.13,1.59,0.38,2.19
		c0.25,0.6,0.62,1.05,1.1,1.37C122.59,21.69,123.18,21.85,123.87,21.85z"/>
	<path class="st2" d="M139.46,35.72l4.78-11.29l0.07,2.95l-9.02-19.16h8.12l2.66,6.4c0.29,0.67,0.53,1.31,0.74,1.91
		c0.2,0.6,0.35,1.16,0.45,1.69l-0.72,0.65c0.1-0.26,0.24-0.68,0.43-1.24c0.19-0.56,0.41-1.22,0.65-1.96l2.52-7.44h8.12l-8.38,19.23
		l-3.38,8.27H139.46z"/>
</g>
</svg>
